<svg fill="#000000" xmlns="http://www.w3.org/2000/svg"  viewBox="0 0 64 64" width="64px" height="64px"><path d="M 31.207031 2 C 14.949219 2 1.71875 14.992188 1.71875 30.960938 C 1.71875 46.929688 14.949219 59.921875 31.207031 59.921875 C 47.832031 59.921875 59 48.621094 59 31.808594 L 59 28.199219 C 59 27.09375 58.105469 26.199219 57 26.199219 L 33.34375 26.199219 C 32.242188 26.199219 31.34375 27.09375 31.34375 28.199219 L 31.34375 35.417969 C 31.34375 36.519531 32.242188 37.417969 33.34375 37.417969 L 46.941406 37.417969 C 45.152344 44.660156 39.632813 48.699219 31.207031 48.699219 C 21.246094 48.699219 13.140625 40.738281 13.140625 30.957031 C 13.140625 21.175781 21.246094 13.21875 31.207031 13.21875 C 34.957031 13.21875 38.597656 14.363281 41.632813 16.472656 C 41.988281 16.71875 42.394531 16.84375 42.796875 16.84375 C 43.347656 16.84375 43.894531 16.613281 44.28125 16.171875 L 49.140625 10.6875 C 49.917969 9.8125 49.789063 8.449219 48.84375 7.753906 C 43.769531 4.03125 37.585938 2 31.207031 2 Z M 31.207031 4 C 37.101563 4 42.945313 5.90625 47.644531 9.363281 L 42.773438 14.828125 C 39.375 12.46875 35.375 11.21875 31.207031 11.21875 C 24.496094 11.21875 18.554688 14.488281 14.910156 19.484375 L 9.023438 15.066406 C 14.027344 8.363281 22.105469 4 31.207031 4 Z M 7.886719 16.714844 L 13.8125 21.160156 C 12.125 24.050781 11.144531 27.394531 11.144531 30.960938 C 11.144531 33.25 11.5625 35.4375 12.292969 37.484375 L 6.171875 42.070313 C 4.605469 38.679688 3.71875 34.921875 3.71875 30.960938 C 3.71875 25.734375 5.25 20.851563 7.886719 16.714844 Z M 25.289063 17.207031 C 25.160156 17.210938 25.027344 17.242188 24.902344 17.296875 C 24.394531 17.523438 24.167969 18.109375 24.390625 18.613281 L 25.203125 20.441406 C 25.371094 20.816406 25.734375 21.035156 26.121094 21.035156 C 26.253906 21.035156 26.394531 21.007813 26.527344 20.949219 C 27.03125 20.726563 27.257813 20.136719 27.03125 19.628906 L 26.21875 17.804688 C 26.050781 17.425781 25.679688 17.203125 25.289063 17.207031 Z M 20.910156 20.277344 C 20.65625 20.28125 20.402344 20.378906 20.210938 20.578125 C 19.828125 20.972656 19.835938 21.609375 20.234375 21.992188 L 21.671875 23.382813 C 21.867188 23.570313 22.117188 23.660156 22.367188 23.660156 C 22.628906 23.660156 22.890625 23.558594 23.085938 23.359375 C 23.472656 22.960938 23.460938 22.328125 23.0625 21.945313 L 21.625 20.554688 C 21.425781 20.363281 21.167969 20.269531 20.910156 20.277344 Z M 18.003906 24.753906 C 17.617188 24.761719 17.25 25 17.09375 25.382813 C 16.886719 25.894531 17.132813 26.476563 17.644531 26.683594 L 19.5 27.433594 C 19.621094 27.480469 19.75 27.503906 19.875 27.503906 C 20.269531 27.503906 20.644531 27.269531 20.800781 26.878906 C 21.007813 26.367188 20.761719 25.785156 20.25 25.578125 L 18.394531 24.828125 C 18.265625 24.777344 18.136719 24.753906 18.003906 24.753906 Z M 33.34375 28.199219 L 57 28.199219 L 57 31.808594 C 57 39.417969 54.535156 45.804688 50.222656 50.359375 L 44.71875 45.640625 C 46.691406 43.609375 48.113281 41.007813 48.886719 37.894531 C 49.03125 37.300781 48.898438 36.667969 48.515625 36.183594 C 48.136719 35.699219 47.558594 35.417969 46.941406 35.417969 L 33.34375 35.417969 Z M 17 30 C 16.445313 30 16 30.445313 16 31 C 16 31.554688 16.445313 32 17 32 L 19 32 C 19.554688 32 20 31.554688 20 31 C 20 30.445313 19.554688 30 19 30 Z M 19.890625 34.496094 C 19.757813 34.492188 19.628906 34.515625 19.5 34.566406 L 17.644531 35.316406 C 17.132813 35.523438 16.886719 36.105469 17.09375 36.617188 C 17.25 37.007813 17.625 37.246094 18.019531 37.246094 C 18.144531 37.246094 18.273438 37.222656 18.394531 37.171875 L 20.25 36.421875 C 20.761719 36.214844 21.007813 35.632813 20.800781 35.121094 C 20.644531 34.738281 20.277344 34.5 19.890625 34.496094 Z M 22.386719 38.339844 C 22.128906 38.332031 21.871094 38.425781 21.671875 38.617188 L 20.234375 40.007813 C 19.835938 40.390625 19.828125 41.027344 20.210938 41.421875 C 20.40625 41.625 20.667969 41.726563 20.929688 41.726563 C 21.179688 41.726563 21.429688 41.632813 21.625 41.445313 L 23.0625 40.054688 C 23.460938 39.671875 23.46875 39.039063 23.085938 38.640625 C 22.894531 38.445313 22.640625 38.34375 22.386719 38.339844 Z M 13.089844 39.382813 C 16.3125 46.058594 23.210938 50.699219 31.207031 50.699219 C 36.0625 50.699219 40.136719 49.394531 43.207031 46.984375 L 48.78125 51.761719 C 44.339844 55.6875 38.3125 57.921875 31.207031 57.921875 C 20.820313 57.921875 11.765625 52.238281 7.09375 43.878906 Z M 26.140625 40.964844 C 25.75 40.957031 25.371094 41.179688 25.203125 41.558594 L 24.390625 43.386719 C 24.167969 43.890625 24.394531 44.480469 24.902344 44.703125 C 25.03125 44.761719 25.167969 44.789063 25.304688 44.789063 C 25.6875 44.789063 26.054688 44.566406 26.21875 44.195313 L 27.03125 42.371094 C 27.257813 41.863281 27.03125 41.273438 26.527344 41.050781 C 26.398438 40.992188 26.269531 40.964844 26.140625 40.964844 Z"/></svg>