<svg fill="#000000" xmlns="http://www.w3.org/2000/svg"  viewBox="0 0 100 100" width="100px" height="100px"><path d="M 64.5 16 C 54.8466 16 47 23.8466 47 33.5 C 47 34.612975 47.239051 35.649481 47.441406 36.697266 C 25.881358 34.793239 15.450335 21.403751 14.001953 19.412109 A 1.0001 1.0001 0 0 0 12.326172 19.5 C 10.830125 22.096365 10 25.327371 10 28.5 C 10 33.68572 12.466385 38.537405 16.300781 41.707031 C 15.200572 41.527267 14.28279 41.289576 13.566406 41.050781 C 12.161275 40.582404 11.554687 40.167969 11.554688 40.167969 A 1.0001 1.0001 0 0 0 10 41 C 10 48.238221 14.566882 54.385889 20.953125 56.841797 C 20.622271 56.859584 20.337443 57 20 57 C 19.147392 57 17.845018 56.92449 17.0625 56.808594 A 1.0001 1.0001 0 0 0 15.992188 58.179688 L 16.076172 58.382812 A 1.0001 1.0001 0 0 0 16.078125 58.388672 C 18.616781 64.391466 24.800144 68.552058 31.517578 69.582031 C 26.297103 73.538616 19.508644 76 12.5 76 L 11 76 A 1.0001 1.0001 0 0 0 10.445312 77.832031 C 16.663396 81.97742 24.952062 84 33.5 84 C 60.274418 84 82 62.274418 82 35.5 A 1.0001 1.0001 0 0 0 82 35.490234 C 82 35.490234 81.993998 34.87894 81.986328 34.240234 C 81.981728 33.851303 81.976826 33.639764 81.972656 33.361328 C 86.86431 30.439635 89.800781 26.599609 89.800781 26.599609 A 1.0001 1.0001 0 0 0 88.71875 25.041016 C 88.71875 25.041016 85.486778 25.821369 82.072266 26.207031 C 86.054307 22.877916 87.449219 19.316406 87.449219 19.316406 A 1.0001 1.0001 0 0 0 86.021484 18.121094 C 86.021484 18.121094 81.075033 20.716475 76.613281 20.943359 C 73.467486 17.908115 69.21376 16 64.5 16 z M 64.5 18 C 68.856381 18 72.776277 19.797639 75.59375 22.6875 A 1.0001 1.0001 0 0 0 76.332031 22.988281 C 79.465469 22.913051 82.20469 21.973629 84.257812 21.107422 C 83.286248 22.546273 81.678701 24.397531 79.082031 26.076172 A 1.0001 1.0001 0 0 0 78.708984 27.314453 C 78.761294 27.434385 78.819031 27.620382 78.912109 27.857422 A 1.0001 1.0001 0 0 0 79.865234 28.490234 C 82.084306 28.441124 84.331582 28.072004 86.091797 27.712891 C 84.765988 29.00661 82.862586 30.620803 80.474609 31.966797 A 1.0001 1.0001 0 0 0 79.966797 32.878906 C 79.966799 32.878961 79.978718 33.626627 79.986328 34.263672 C 79.993944 34.900716 80 35.509766 80 35.509766 C 79.994637 61.198775 59.19027 82 33.5 82 C 26.599599 82 19.989658 80.52774 14.599609 77.806641 C 22.152358 77.330627 29.387787 74.464381 34.666016 69.746094 A 1.0001 1.0001 0 0 0 34.027344 68 C 27.717528 67.823398 21.64961 64.083733 18.755859 58.917969 C 19.189528 58.939162 19.629741 59 20 59 C 22.215848 59 24.339214 58.651386 26.333984 57.943359 A 1.0001 1.0001 0 0 0 26.060547 56.001953 C 18.746713 55.552973 12.927418 49.829862 12.154297 42.599609 C 12.510284 42.756951 12.434169 42.782744 12.933594 42.949219 C 14.528462 43.480842 16.888889 44 20 44 A 1.0001 1.0001 0 0 0 20.427734 42.095703 C 15.467541 39.75499 12 34.266873 12 28.5 C 12 26.20086 12.611205 23.910494 13.501953 21.892578 C 16.60185 25.774302 27.420269 37.485392 48.537109 38.863281 A 1.0001 1.0001 0 0 0 49.566406 37.599609 C 49.20555 36.284657 49 34.916686 49 33.5 C 49 24.9274 55.9274 18 64.5 18 z M 64.5 21 C 60.811943 21 57.496914 22.617858 55.208984 25.166016 A 0.50005 0.50005 0 1 0 55.953125 25.833984 C 58.061196 23.486142 61.104057 22 64.5 22 C 67.36354 22 70.04768 23.047904 72.166016 24.955078 A 0.50005 0.50005 0 1 0 72.833984 24.212891 C 70.53832 22.146065 67.60846 21 64.5 21 z M 53.617188 27.994141 A 0.50005 0.50005 0 0 0 53.150391 28.291016 C 52.698066 29.272789 52.372841 30.319587 52.1875 31.416016 A 0.50026397 0.50026397 0 1 0 53.173828 31.583984 C 53.344487 30.574413 53.642918 29.611211 54.058594 28.708984 A 0.50005 0.50005 0 0 0 53.617188 27.994141 z M 52.492188 32.992188 A 0.50005 0.50005 0 0 0 52 33.5 C 52 33.87054 52.044266 34.220554 52.072266 34.542969 A 0.50005 0.50005 0 1 0 53.068359 34.457031 C 53.03835 34.111448 53 33.78746 53 33.5 A 0.50005 0.50005 0 0 0 52.492188 32.992188 z M 72.548828 52.994141 A 0.50005 0.50005 0 0 0 72.083984 53.289062 C 67.250061 63.728797 58.30392 71.885733 47.335938 75.673828 A 0.5003204 0.5003204 0 1 0 47.664062 76.619141 C 58.89208 72.741235 68.042158 64.397204 72.990234 53.710938 A 0.50005 0.50005 0 0 0 72.548828 52.994141 z M 41.490234 77.240234 A 0.50005 0.50005 0 0 0 41.40625 77.25 C 39.79001 77.556256 38.140748 77.768095 36.464844 77.884766 A 0.50025983 0.50025983 0 1 0 36.535156 78.882812 C 38.249252 78.763484 39.93799 78.546166 41.59375 78.232422 A 0.50005 0.50005 0 0 0 41.490234 77.240234 z M 32.509766 77.970703 A 0.50009537 0.50009537 0 1 0 32.490234 78.970703 C 32.810171 78.977388 33.141239 79 33.5 79 A 0.50005 0.50005 0 1 0 33.5 78 C 33.184761 78 32.859827 77.978023 32.509766 77.970703 z"/></svg>